<mxfile host="app.diagrams.net" agent="Mozilla/5.0 (Macintosh; Intel Mac OS X 10_15_7) AppleWebKit/537.36 (KHTML, like Gecko) Chrome/130.0.0.0 Safari/537.36" version="24.8.6">
  <diagram id="R2lEEEUBdFMjLlhIrx00" name="Page-1">
    <mxGraphModel dx="1999" dy="1260" grid="0" gridSize="10" guides="1" tooltips="1" connect="1" arrows="1" fold="1" page="0" pageScale="1" pageWidth="850" pageHeight="1100" math="0" shadow="0" extFonts="Permanent Marker^https://fonts.googleapis.com/css?family=Permanent+Marker">
      <root>
        <mxCell id="0" />
        <mxCell id="1" parent="0" />
        <mxCell id="R9eSc8jSqoR7vsGQx-Jw-9" value="User" style="shape=table;startSize=30;container=1;collapsible=1;childLayout=tableLayout;fixedRows=1;rowLines=0;fontStyle=1;align=center;resizeLast=1;html=1;" parent="1" vertex="1">
          <mxGeometry x="88" y="382" width="241" height="240" as="geometry" />
        </mxCell>
        <mxCell id="R9eSc8jSqoR7vsGQx-Jw-10" value="" style="shape=tableRow;horizontal=0;startSize=0;swimlaneHead=0;swimlaneBody=0;fillColor=none;collapsible=0;dropTarget=0;points=[[0,0.5],[1,0.5]];portConstraint=eastwest;top=0;left=0;right=0;bottom=1;" parent="R9eSc8jSqoR7vsGQx-Jw-9" vertex="1">
          <mxGeometry y="30" width="241" height="30" as="geometry" />
        </mxCell>
        <mxCell id="R9eSc8jSqoR7vsGQx-Jw-11" value="PK" style="shape=partialRectangle;connectable=0;fillColor=none;top=0;left=0;bottom=0;right=0;fontStyle=1;overflow=hidden;whiteSpace=wrap;html=1;" parent="R9eSc8jSqoR7vsGQx-Jw-10" vertex="1">
          <mxGeometry width="30" height="30" as="geometry">
            <mxRectangle width="30" height="30" as="alternateBounds" />
          </mxGeometry>
        </mxCell>
        <mxCell id="R9eSc8jSqoR7vsGQx-Jw-12" value="&lt;span style=&quot;font-weight: normal;&quot;&gt;id INT&lt;/span&gt;" style="shape=partialRectangle;connectable=0;fillColor=none;top=0;left=0;bottom=0;right=0;align=left;spacingLeft=6;fontStyle=5;overflow=hidden;whiteSpace=wrap;html=1;" parent="R9eSc8jSqoR7vsGQx-Jw-10" vertex="1">
          <mxGeometry x="30" width="211" height="30" as="geometry">
            <mxRectangle width="211" height="30" as="alternateBounds" />
          </mxGeometry>
        </mxCell>
        <mxCell id="R9eSc8jSqoR7vsGQx-Jw-13" value="" style="shape=tableRow;horizontal=0;startSize=0;swimlaneHead=0;swimlaneBody=0;fillColor=none;collapsible=0;dropTarget=0;points=[[0,0.5],[1,0.5]];portConstraint=eastwest;top=0;left=0;right=0;bottom=0;" parent="R9eSc8jSqoR7vsGQx-Jw-9" vertex="1">
          <mxGeometry y="60" width="241" height="30" as="geometry" />
        </mxCell>
        <mxCell id="R9eSc8jSqoR7vsGQx-Jw-14" value="" style="shape=partialRectangle;connectable=0;fillColor=none;top=0;left=0;bottom=0;right=0;editable=1;overflow=hidden;whiteSpace=wrap;html=1;" parent="R9eSc8jSqoR7vsGQx-Jw-13" vertex="1">
          <mxGeometry width="30" height="30" as="geometry">
            <mxRectangle width="30" height="30" as="alternateBounds" />
          </mxGeometry>
        </mxCell>
        <mxCell id="R9eSc8jSqoR7vsGQx-Jw-15" value="name VARCHAR NN" style="shape=partialRectangle;connectable=0;fillColor=none;top=0;left=0;bottom=0;right=0;align=left;spacingLeft=6;overflow=hidden;whiteSpace=wrap;html=1;" parent="R9eSc8jSqoR7vsGQx-Jw-13" vertex="1">
          <mxGeometry x="30" width="211" height="30" as="geometry">
            <mxRectangle width="211" height="30" as="alternateBounds" />
          </mxGeometry>
        </mxCell>
        <mxCell id="R9eSc8jSqoR7vsGQx-Jw-16" value="" style="shape=tableRow;horizontal=0;startSize=0;swimlaneHead=0;swimlaneBody=0;fillColor=none;collapsible=0;dropTarget=0;points=[[0,0.5],[1,0.5]];portConstraint=eastwest;top=0;left=0;right=0;bottom=0;" parent="R9eSc8jSqoR7vsGQx-Jw-9" vertex="1">
          <mxGeometry y="90" width="241" height="30" as="geometry" />
        </mxCell>
        <mxCell id="R9eSc8jSqoR7vsGQx-Jw-17" value="UQ" style="shape=partialRectangle;connectable=0;fillColor=none;top=0;left=0;bottom=0;right=0;editable=1;overflow=hidden;whiteSpace=wrap;html=1;" parent="R9eSc8jSqoR7vsGQx-Jw-16" vertex="1">
          <mxGeometry width="30" height="30" as="geometry">
            <mxRectangle width="30" height="30" as="alternateBounds" />
          </mxGeometry>
        </mxCell>
        <mxCell id="R9eSc8jSqoR7vsGQx-Jw-18" value="email VARCHAR NN" style="shape=partialRectangle;connectable=0;fillColor=none;top=0;left=0;bottom=0;right=0;align=left;spacingLeft=6;overflow=hidden;whiteSpace=wrap;html=1;" parent="R9eSc8jSqoR7vsGQx-Jw-16" vertex="1">
          <mxGeometry x="30" width="211" height="30" as="geometry">
            <mxRectangle width="211" height="30" as="alternateBounds" />
          </mxGeometry>
        </mxCell>
        <mxCell id="R9eSc8jSqoR7vsGQx-Jw-22" value="" style="shape=tableRow;horizontal=0;startSize=0;swimlaneHead=0;swimlaneBody=0;fillColor=none;collapsible=0;dropTarget=0;points=[[0,0.5],[1,0.5]];portConstraint=eastwest;top=0;left=0;right=0;bottom=0;" parent="R9eSc8jSqoR7vsGQx-Jw-9" vertex="1">
          <mxGeometry y="120" width="241" height="30" as="geometry" />
        </mxCell>
        <mxCell id="R9eSc8jSqoR7vsGQx-Jw-23" value="" style="shape=partialRectangle;connectable=0;fillColor=none;top=0;left=0;bottom=0;right=0;editable=1;overflow=hidden;whiteSpace=wrap;html=1;" parent="R9eSc8jSqoR7vsGQx-Jw-22" vertex="1">
          <mxGeometry width="30" height="30" as="geometry">
            <mxRectangle width="30" height="30" as="alternateBounds" />
          </mxGeometry>
        </mxCell>
        <mxCell id="R9eSc8jSqoR7vsGQx-Jw-24" value="password VARCHAR NN" style="shape=partialRectangle;connectable=0;fillColor=none;top=0;left=0;bottom=0;right=0;align=left;spacingLeft=6;overflow=hidden;whiteSpace=wrap;html=1;" parent="R9eSc8jSqoR7vsGQx-Jw-22" vertex="1">
          <mxGeometry x="30" width="211" height="30" as="geometry">
            <mxRectangle width="211" height="30" as="alternateBounds" />
          </mxGeometry>
        </mxCell>
        <mxCell id="R9eSc8jSqoR7vsGQx-Jw-25" value="" style="shape=tableRow;horizontal=0;startSize=0;swimlaneHead=0;swimlaneBody=0;fillColor=none;collapsible=0;dropTarget=0;points=[[0,0.5],[1,0.5]];portConstraint=eastwest;top=0;left=0;right=0;bottom=0;" parent="R9eSc8jSqoR7vsGQx-Jw-9" vertex="1">
          <mxGeometry y="150" width="241" height="30" as="geometry" />
        </mxCell>
        <mxCell id="R9eSc8jSqoR7vsGQx-Jw-26" value="" style="shape=partialRectangle;connectable=0;fillColor=none;top=0;left=0;bottom=0;right=0;editable=1;overflow=hidden;whiteSpace=wrap;html=1;" parent="R9eSc8jSqoR7vsGQx-Jw-25" vertex="1">
          <mxGeometry width="30" height="30" as="geometry">
            <mxRectangle width="30" height="30" as="alternateBounds" />
          </mxGeometry>
        </mxCell>
        <mxCell id="R9eSc8jSqoR7vsGQx-Jw-27" value="icon_image_url VARCHAR" style="shape=partialRectangle;connectable=0;fillColor=none;top=0;left=0;bottom=0;right=0;align=left;spacingLeft=6;overflow=hidden;whiteSpace=wrap;html=1;" parent="R9eSc8jSqoR7vsGQx-Jw-25" vertex="1">
          <mxGeometry x="30" width="211" height="30" as="geometry">
            <mxRectangle width="211" height="30" as="alternateBounds" />
          </mxGeometry>
        </mxCell>
        <mxCell id="R9eSc8jSqoR7vsGQx-Jw-28" value="" style="shape=tableRow;horizontal=0;startSize=0;swimlaneHead=0;swimlaneBody=0;fillColor=none;collapsible=0;dropTarget=0;points=[[0,0.5],[1,0.5]];portConstraint=eastwest;top=0;left=0;right=0;bottom=0;" parent="R9eSc8jSqoR7vsGQx-Jw-9" vertex="1">
          <mxGeometry y="180" width="241" height="30" as="geometry" />
        </mxCell>
        <mxCell id="R9eSc8jSqoR7vsGQx-Jw-29" value="" style="shape=partialRectangle;connectable=0;fillColor=none;top=0;left=0;bottom=0;right=0;editable=1;overflow=hidden;whiteSpace=wrap;html=1;" parent="R9eSc8jSqoR7vsGQx-Jw-28" vertex="1">
          <mxGeometry width="30" height="30" as="geometry">
            <mxRectangle width="30" height="30" as="alternateBounds" />
          </mxGeometry>
        </mxCell>
        <mxCell id="R9eSc8jSqoR7vsGQx-Jw-30" value="created_at DATE NN" style="shape=partialRectangle;connectable=0;fillColor=none;top=0;left=0;bottom=0;right=0;align=left;spacingLeft=6;overflow=hidden;whiteSpace=wrap;html=1;" parent="R9eSc8jSqoR7vsGQx-Jw-28" vertex="1">
          <mxGeometry x="30" width="211" height="30" as="geometry">
            <mxRectangle width="211" height="30" as="alternateBounds" />
          </mxGeometry>
        </mxCell>
        <mxCell id="R9eSc8jSqoR7vsGQx-Jw-19" value="" style="shape=tableRow;horizontal=0;startSize=0;swimlaneHead=0;swimlaneBody=0;fillColor=none;collapsible=0;dropTarget=0;points=[[0,0.5],[1,0.5]];portConstraint=eastwest;top=0;left=0;right=0;bottom=0;" parent="R9eSc8jSqoR7vsGQx-Jw-9" vertex="1">
          <mxGeometry y="210" width="241" height="30" as="geometry" />
        </mxCell>
        <mxCell id="R9eSc8jSqoR7vsGQx-Jw-20" value="" style="shape=partialRectangle;connectable=0;fillColor=none;top=0;left=0;bottom=0;right=0;editable=1;overflow=hidden;whiteSpace=wrap;html=1;" parent="R9eSc8jSqoR7vsGQx-Jw-19" vertex="1">
          <mxGeometry width="30" height="30" as="geometry">
            <mxRectangle width="30" height="30" as="alternateBounds" />
          </mxGeometry>
        </mxCell>
        <mxCell id="R9eSc8jSqoR7vsGQx-Jw-21" value="updated_at DATE NN" style="shape=partialRectangle;connectable=0;fillColor=none;top=0;left=0;bottom=0;right=0;align=left;spacingLeft=6;overflow=hidden;whiteSpace=wrap;html=1;" parent="R9eSc8jSqoR7vsGQx-Jw-19" vertex="1">
          <mxGeometry x="30" width="211" height="30" as="geometry">
            <mxRectangle width="211" height="30" as="alternateBounds" />
          </mxGeometry>
        </mxCell>
        <mxCell id="TO627fWTAbgW94jCvklS-151" value="" style="edgeStyle=entityRelationEdgeStyle;fontSize=12;html=1;endArrow=ERzeroToMany;startArrow=ERmandOne;rounded=0;exitX=1;exitY=0.5;exitDx=0;exitDy=0;entryX=0;entryY=0.5;entryDx=0;entryDy=0;" parent="1" source="R9eSc8jSqoR7vsGQx-Jw-10" target="TO627fWTAbgW94jCvklS-94" edge="1">
          <mxGeometry width="100" height="100" relative="1" as="geometry">
            <mxPoint x="399" y="136" as="sourcePoint" />
            <mxPoint x="499" y="36" as="targetPoint" />
          </mxGeometry>
        </mxCell>
        <mxCell id="wUR_fCZZNTFB3ing8XWp-1" value="Request" style="shape=table;startSize=30;container=1;collapsible=1;childLayout=tableLayout;fixedRows=1;rowLines=0;fontStyle=1;align=center;resizeLast=1;html=1;" parent="1" vertex="1">
          <mxGeometry x="468" y="-119" width="244.88395467836244" height="391.3887367248536" as="geometry" />
        </mxCell>
        <mxCell id="wUR_fCZZNTFB3ing8XWp-2" value="" style="shape=tableRow;horizontal=0;startSize=0;swimlaneHead=0;swimlaneBody=0;fillColor=none;collapsible=0;dropTarget=0;points=[[0,0.5],[1,0.5]];portConstraint=eastwest;top=0;left=0;right=0;bottom=1;" parent="wUR_fCZZNTFB3ing8XWp-1" vertex="1">
          <mxGeometry y="30" width="244.88395467836244" height="30" as="geometry" />
        </mxCell>
        <mxCell id="wUR_fCZZNTFB3ing8XWp-3" value="PK" style="shape=partialRectangle;connectable=0;fillColor=none;top=0;left=0;bottom=0;right=0;fontStyle=1;overflow=hidden;whiteSpace=wrap;html=1;" parent="wUR_fCZZNTFB3ing8XWp-2" vertex="1">
          <mxGeometry width="30" height="30" as="geometry">
            <mxRectangle width="30" height="30" as="alternateBounds" />
          </mxGeometry>
        </mxCell>
        <mxCell id="wUR_fCZZNTFB3ing8XWp-4" value="&lt;span style=&quot;font-weight: normal;&quot;&gt;id INT&lt;/span&gt;" style="shape=partialRectangle;connectable=0;fillColor=none;top=0;left=0;bottom=0;right=0;align=left;spacingLeft=6;fontStyle=5;overflow=hidden;whiteSpace=wrap;html=1;" parent="wUR_fCZZNTFB3ing8XWp-2" vertex="1">
          <mxGeometry x="30" width="214.88395467836244" height="30" as="geometry">
            <mxRectangle width="214.88395467836244" height="30" as="alternateBounds" />
          </mxGeometry>
        </mxCell>
        <mxCell id="wUR_fCZZNTFB3ing8XWp-8" value="" style="shape=tableRow;horizontal=0;startSize=0;swimlaneHead=0;swimlaneBody=0;fillColor=none;collapsible=0;dropTarget=0;points=[[0,0.5],[1,0.5]];portConstraint=eastwest;top=0;left=0;right=0;bottom=0;" parent="wUR_fCZZNTFB3ing8XWp-1" vertex="1">
          <mxGeometry y="60" width="244.88395467836244" height="30" as="geometry" />
        </mxCell>
        <mxCell id="wUR_fCZZNTFB3ing8XWp-9" value="" style="shape=partialRectangle;connectable=0;fillColor=none;top=0;left=0;bottom=0;right=0;editable=1;overflow=hidden;whiteSpace=wrap;html=1;" parent="wUR_fCZZNTFB3ing8XWp-8" vertex="1">
          <mxGeometry width="30" height="30" as="geometry">
            <mxRectangle width="30" height="30" as="alternateBounds" />
          </mxGeometry>
        </mxCell>
        <mxCell id="wUR_fCZZNTFB3ing8XWp-10" value="title VARCHAR NN" style="shape=partialRectangle;connectable=0;fillColor=none;top=0;left=0;bottom=0;right=0;align=left;spacingLeft=6;overflow=hidden;whiteSpace=wrap;html=1;" parent="wUR_fCZZNTFB3ing8XWp-8" vertex="1">
          <mxGeometry x="30" width="214.88395467836244" height="30" as="geometry">
            <mxRectangle width="214.88395467836244" height="30" as="alternateBounds" />
          </mxGeometry>
        </mxCell>
        <mxCell id="TO627fWTAbgW94jCvklS-152" value="" style="shape=tableRow;horizontal=0;startSize=0;swimlaneHead=0;swimlaneBody=0;fillColor=none;collapsible=0;dropTarget=0;points=[[0,0.5],[1,0.5]];portConstraint=eastwest;top=0;left=0;right=0;bottom=0;" parent="wUR_fCZZNTFB3ing8XWp-1" vertex="1">
          <mxGeometry y="90" width="244.88395467836244" height="30" as="geometry" />
        </mxCell>
        <mxCell id="TO627fWTAbgW94jCvklS-153" value="" style="shape=partialRectangle;connectable=0;fillColor=none;top=0;left=0;bottom=0;right=0;editable=1;overflow=hidden;whiteSpace=wrap;html=1;" parent="TO627fWTAbgW94jCvklS-152" vertex="1">
          <mxGeometry width="30" height="30" as="geometry">
            <mxRectangle width="30" height="30" as="alternateBounds" />
          </mxGeometry>
        </mxCell>
        <mxCell id="TO627fWTAbgW94jCvklS-154" value="location_prefecture&amp;nbsp;VARCHAR NN" style="shape=partialRectangle;connectable=0;fillColor=none;top=0;left=0;bottom=0;right=0;align=left;spacingLeft=6;overflow=hidden;whiteSpace=wrap;html=1;" parent="TO627fWTAbgW94jCvklS-152" vertex="1">
          <mxGeometry x="30" width="214.88395467836244" height="30" as="geometry">
            <mxRectangle width="214.88395467836244" height="30" as="alternateBounds" />
          </mxGeometry>
        </mxCell>
        <mxCell id="wUR_fCZZNTFB3ing8XWp-11" value="" style="shape=tableRow;horizontal=0;startSize=0;swimlaneHead=0;swimlaneBody=0;fillColor=none;collapsible=0;dropTarget=0;points=[[0,0.5],[1,0.5]];portConstraint=eastwest;top=0;left=0;right=0;bottom=0;" parent="wUR_fCZZNTFB3ing8XWp-1" vertex="1">
          <mxGeometry y="120" width="244.88395467836244" height="30" as="geometry" />
        </mxCell>
        <mxCell id="wUR_fCZZNTFB3ing8XWp-12" value="" style="shape=partialRectangle;connectable=0;fillColor=none;top=0;left=0;bottom=0;right=0;editable=1;overflow=hidden;whiteSpace=wrap;html=1;" parent="wUR_fCZZNTFB3ing8XWp-11" vertex="1">
          <mxGeometry width="30" height="30" as="geometry">
            <mxRectangle width="30" height="30" as="alternateBounds" />
          </mxGeometry>
        </mxCell>
        <mxCell id="wUR_fCZZNTFB3ing8XWp-13" value="location_details&amp;nbsp;VARCHAR NN" style="shape=partialRectangle;connectable=0;fillColor=none;top=0;left=0;bottom=0;right=0;align=left;spacingLeft=6;overflow=hidden;whiteSpace=wrap;html=1;" parent="wUR_fCZZNTFB3ing8XWp-11" vertex="1">
          <mxGeometry x="30" width="214.88395467836244" height="30" as="geometry">
            <mxRectangle width="214.88395467836244" height="30" as="alternateBounds" />
          </mxGeometry>
        </mxCell>
        <mxCell id="wUR_fCZZNTFB3ing8XWp-14" value="" style="shape=tableRow;horizontal=0;startSize=0;swimlaneHead=0;swimlaneBody=0;fillColor=none;collapsible=0;dropTarget=0;points=[[0,0.5],[1,0.5]];portConstraint=eastwest;top=0;left=0;right=0;bottom=0;" parent="wUR_fCZZNTFB3ing8XWp-1" vertex="1">
          <mxGeometry y="150" width="244.88395467836244" height="30" as="geometry" />
        </mxCell>
        <mxCell id="wUR_fCZZNTFB3ing8XWp-15" value="" style="shape=partialRectangle;connectable=0;fillColor=none;top=0;left=0;bottom=0;right=0;editable=1;overflow=hidden;whiteSpace=wrap;html=1;" parent="wUR_fCZZNTFB3ing8XWp-14" vertex="1">
          <mxGeometry width="30" height="30" as="geometry">
            <mxRectangle width="30" height="30" as="alternateBounds" />
          </mxGeometry>
        </mxCell>
        <mxCell id="wUR_fCZZNTFB3ing8XWp-16" value="delivery_prefecture VARCHAR NN" style="shape=partialRectangle;connectable=0;fillColor=none;top=0;left=0;bottom=0;right=0;align=left;spacingLeft=6;overflow=hidden;whiteSpace=wrap;html=1;" parent="wUR_fCZZNTFB3ing8XWp-14" vertex="1">
          <mxGeometry x="30" width="214.88395467836244" height="30" as="geometry">
            <mxRectangle width="214.88395467836244" height="30" as="alternateBounds" />
          </mxGeometry>
        </mxCell>
        <mxCell id="wUR_fCZZNTFB3ing8XWp-17" value="" style="shape=tableRow;horizontal=0;startSize=0;swimlaneHead=0;swimlaneBody=0;fillColor=none;collapsible=0;dropTarget=0;points=[[0,0.5],[1,0.5]];portConstraint=eastwest;top=0;left=0;right=0;bottom=0;" parent="wUR_fCZZNTFB3ing8XWp-1" vertex="1">
          <mxGeometry y="180" width="244.88395467836244" height="30" as="geometry" />
        </mxCell>
        <mxCell id="wUR_fCZZNTFB3ing8XWp-18" value="" style="shape=partialRectangle;connectable=0;fillColor=none;top=0;left=0;bottom=0;right=0;editable=1;overflow=hidden;whiteSpace=wrap;html=1;" parent="wUR_fCZZNTFB3ing8XWp-17" vertex="1">
          <mxGeometry width="30" height="30" as="geometry">
            <mxRectangle width="30" height="30" as="alternateBounds" />
          </mxGeometry>
        </mxCell>
        <mxCell id="wUR_fCZZNTFB3ing8XWp-19" value="delivery_details DATE NN" style="shape=partialRectangle;connectable=0;fillColor=none;top=0;left=0;bottom=0;right=0;align=left;spacingLeft=6;overflow=hidden;whiteSpace=wrap;html=1;" parent="wUR_fCZZNTFB3ing8XWp-17" vertex="1">
          <mxGeometry x="30" width="214.88395467836244" height="30" as="geometry">
            <mxRectangle width="214.88395467836244" height="30" as="alternateBounds" />
          </mxGeometry>
        </mxCell>
        <mxCell id="wUR_fCZZNTFB3ing8XWp-20" value="" style="shape=tableRow;horizontal=0;startSize=0;swimlaneHead=0;swimlaneBody=0;fillColor=none;collapsible=0;dropTarget=0;points=[[0,0.5],[1,0.5]];portConstraint=eastwest;top=0;left=0;right=0;bottom=0;" parent="wUR_fCZZNTFB3ing8XWp-1" vertex="1">
          <mxGeometry y="210" width="244.88395467836244" height="30" as="geometry" />
        </mxCell>
        <mxCell id="wUR_fCZZNTFB3ing8XWp-21" value="" style="shape=partialRectangle;connectable=0;fillColor=none;top=0;left=0;bottom=0;right=0;editable=1;overflow=hidden;whiteSpace=wrap;html=1;" parent="wUR_fCZZNTFB3ing8XWp-20" vertex="1">
          <mxGeometry width="30" height="30" as="geometry">
            <mxRectangle width="30" height="30" as="alternateBounds" />
          </mxGeometry>
        </mxCell>
        <mxCell id="wUR_fCZZNTFB3ing8XWp-22" value="description VARCHAR" style="shape=partialRectangle;connectable=0;fillColor=none;top=0;left=0;bottom=0;right=0;align=left;spacingLeft=6;overflow=hidden;whiteSpace=wrap;html=1;" parent="wUR_fCZZNTFB3ing8XWp-20" vertex="1">
          <mxGeometry x="30" width="214.88395467836244" height="30" as="geometry">
            <mxRectangle width="214.88395467836244" height="30" as="alternateBounds" />
          </mxGeometry>
        </mxCell>
        <mxCell id="TO627fWTAbgW94jCvklS-82" value="" style="shape=tableRow;horizontal=0;startSize=0;swimlaneHead=0;swimlaneBody=0;fillColor=none;collapsible=0;dropTarget=0;points=[[0,0.5],[1,0.5]];portConstraint=eastwest;top=0;left=0;right=0;bottom=0;" parent="wUR_fCZZNTFB3ing8XWp-1" vertex="1">
          <mxGeometry y="240" width="244.88395467836244" height="30" as="geometry" />
        </mxCell>
        <mxCell id="TO627fWTAbgW94jCvklS-83" value="" style="shape=partialRectangle;connectable=0;fillColor=none;top=0;left=0;bottom=0;right=0;editable=1;overflow=hidden;whiteSpace=wrap;html=1;" parent="TO627fWTAbgW94jCvklS-82" vertex="1">
          <mxGeometry width="30" height="30" as="geometry">
            <mxRectangle width="30" height="30" as="alternateBounds" />
          </mxGeometry>
        </mxCell>
        <mxCell id="TO627fWTAbgW94jCvklS-84" value="status VARCHAR ENUM NN" style="shape=partialRectangle;connectable=0;fillColor=none;top=0;left=0;bottom=0;right=0;align=left;spacingLeft=6;overflow=hidden;whiteSpace=wrap;html=1;" parent="TO627fWTAbgW94jCvklS-82" vertex="1">
          <mxGeometry x="30" width="214.88395467836244" height="30" as="geometry">
            <mxRectangle width="214.88395467836244" height="30" as="alternateBounds" />
          </mxGeometry>
        </mxCell>
        <mxCell id="TO627fWTAbgW94jCvklS-85" value="" style="shape=tableRow;horizontal=0;startSize=0;swimlaneHead=0;swimlaneBody=0;fillColor=none;collapsible=0;dropTarget=0;points=[[0,0.5],[1,0.5]];portConstraint=eastwest;top=0;left=0;right=0;bottom=0;" parent="wUR_fCZZNTFB3ing8XWp-1" vertex="1">
          <mxGeometry y="270" width="244.88395467836244" height="31" as="geometry" />
        </mxCell>
        <mxCell id="TO627fWTAbgW94jCvklS-86" value="" style="shape=partialRectangle;connectable=0;fillColor=none;top=0;left=0;bottom=0;right=0;editable=1;overflow=hidden;whiteSpace=wrap;html=1;" parent="TO627fWTAbgW94jCvklS-85" vertex="1">
          <mxGeometry width="30" height="31" as="geometry">
            <mxRectangle width="30" height="31" as="alternateBounds" />
          </mxGeometry>
        </mxCell>
        <mxCell id="TO627fWTAbgW94jCvklS-87" value="completed_at DATE NN" style="shape=partialRectangle;connectable=0;fillColor=none;top=0;left=0;bottom=0;right=0;align=left;spacingLeft=6;overflow=hidden;whiteSpace=wrap;html=1;" parent="TO627fWTAbgW94jCvklS-85" vertex="1">
          <mxGeometry x="30" width="214.88395467836244" height="31" as="geometry">
            <mxRectangle width="214.88395467836244" height="31" as="alternateBounds" />
          </mxGeometry>
        </mxCell>
        <mxCell id="TO627fWTAbgW94jCvklS-88" value="" style="shape=tableRow;horizontal=0;startSize=0;swimlaneHead=0;swimlaneBody=0;fillColor=none;collapsible=0;dropTarget=0;points=[[0,0.5],[1,0.5]];portConstraint=eastwest;top=0;left=0;right=0;bottom=0;" parent="wUR_fCZZNTFB3ing8XWp-1" vertex="1">
          <mxGeometry y="301" width="244.88395467836244" height="30" as="geometry" />
        </mxCell>
        <mxCell id="TO627fWTAbgW94jCvklS-89" value="" style="shape=partialRectangle;connectable=0;fillColor=none;top=0;left=0;bottom=0;right=0;editable=1;overflow=hidden;whiteSpace=wrap;html=1;" parent="TO627fWTAbgW94jCvklS-88" vertex="1">
          <mxGeometry width="30" height="30" as="geometry">
            <mxRectangle width="30" height="30" as="alternateBounds" />
          </mxGeometry>
        </mxCell>
        <mxCell id="TO627fWTAbgW94jCvklS-90" value="created_at DATE NN" style="shape=partialRectangle;connectable=0;fillColor=none;top=0;left=0;bottom=0;right=0;align=left;spacingLeft=6;overflow=hidden;whiteSpace=wrap;html=1;" parent="TO627fWTAbgW94jCvklS-88" vertex="1">
          <mxGeometry x="30" width="214.88395467836244" height="30" as="geometry">
            <mxRectangle width="214.88395467836244" height="30" as="alternateBounds" />
          </mxGeometry>
        </mxCell>
        <mxCell id="TO627fWTAbgW94jCvklS-91" value="" style="shape=tableRow;horizontal=0;startSize=0;swimlaneHead=0;swimlaneBody=0;fillColor=none;collapsible=0;dropTarget=0;points=[[0,0.5],[1,0.5]];portConstraint=eastwest;top=0;left=0;right=0;bottom=0;" parent="wUR_fCZZNTFB3ing8XWp-1" vertex="1">
          <mxGeometry y="331" width="244.88395467836244" height="30" as="geometry" />
        </mxCell>
        <mxCell id="TO627fWTAbgW94jCvklS-92" value="" style="shape=partialRectangle;connectable=0;fillColor=none;top=0;left=0;bottom=0;right=0;editable=1;overflow=hidden;whiteSpace=wrap;html=1;" parent="TO627fWTAbgW94jCvklS-91" vertex="1">
          <mxGeometry width="30" height="30" as="geometry">
            <mxRectangle width="30" height="30" as="alternateBounds" />
          </mxGeometry>
        </mxCell>
        <mxCell id="TO627fWTAbgW94jCvklS-93" value="updated_at DATE NN" style="shape=partialRectangle;connectable=0;fillColor=none;top=0;left=0;bottom=0;right=0;align=left;spacingLeft=6;overflow=hidden;whiteSpace=wrap;html=1;" parent="TO627fWTAbgW94jCvklS-91" vertex="1">
          <mxGeometry x="30" width="214.88395467836244" height="30" as="geometry">
            <mxRectangle width="214.88395467836244" height="30" as="alternateBounds" />
          </mxGeometry>
        </mxCell>
        <mxCell id="TO627fWTAbgW94jCvklS-94" value="" style="shape=tableRow;horizontal=0;startSize=0;swimlaneHead=0;swimlaneBody=0;fillColor=none;collapsible=0;dropTarget=0;points=[[0,0.5],[1,0.5]];portConstraint=eastwest;top=0;left=0;right=0;bottom=0;" parent="wUR_fCZZNTFB3ing8XWp-1" vertex="1">
          <mxGeometry y="361" width="244.88395467836244" height="30" as="geometry" />
        </mxCell>
        <mxCell id="TO627fWTAbgW94jCvklS-95" value="FK" style="shape=partialRectangle;connectable=0;fillColor=none;top=0;left=0;bottom=0;right=0;editable=1;overflow=hidden;whiteSpace=wrap;html=1;" parent="TO627fWTAbgW94jCvklS-94" vertex="1">
          <mxGeometry width="30" height="30" as="geometry">
            <mxRectangle width="30" height="30" as="alternateBounds" />
          </mxGeometry>
        </mxCell>
        <mxCell id="TO627fWTAbgW94jCvklS-96" value="userId" style="shape=partialRectangle;connectable=0;fillColor=none;top=0;left=0;bottom=0;right=0;align=left;spacingLeft=6;overflow=hidden;whiteSpace=wrap;html=1;" parent="TO627fWTAbgW94jCvklS-94" vertex="1">
          <mxGeometry x="30" width="214.88395467836244" height="30" as="geometry">
            <mxRectangle width="214.88395467836244" height="30" as="alternateBounds" />
          </mxGeometry>
        </mxCell>
        <mxCell id="TO627fWTAbgW94jCvklS-188" value="Item" style="shape=table;startSize=30;container=1;collapsible=1;childLayout=tableLayout;fixedRows=1;rowLines=0;fontStyle=1;align=center;resizeLast=1;html=1;" parent="1" vertex="1">
          <mxGeometry x="774" y="-119" width="244.88395467836244" height="180.38873672485357" as="geometry" />
        </mxCell>
        <mxCell id="TO627fWTAbgW94jCvklS-189" value="" style="shape=tableRow;horizontal=0;startSize=0;swimlaneHead=0;swimlaneBody=0;fillColor=none;collapsible=0;dropTarget=0;points=[[0,0.5],[1,0.5]];portConstraint=eastwest;top=0;left=0;right=0;bottom=1;" parent="TO627fWTAbgW94jCvklS-188" vertex="1">
          <mxGeometry y="30" width="244.88395467836244" height="30" as="geometry" />
        </mxCell>
        <mxCell id="TO627fWTAbgW94jCvklS-190" value="PK" style="shape=partialRectangle;connectable=0;fillColor=none;top=0;left=0;bottom=0;right=0;fontStyle=1;overflow=hidden;whiteSpace=wrap;html=1;" parent="TO627fWTAbgW94jCvklS-189" vertex="1">
          <mxGeometry width="30" height="30" as="geometry">
            <mxRectangle width="30" height="30" as="alternateBounds" />
          </mxGeometry>
        </mxCell>
        <mxCell id="TO627fWTAbgW94jCvklS-191" value="&lt;span style=&quot;font-weight: normal;&quot;&gt;id INT&lt;/span&gt;" style="shape=partialRectangle;connectable=0;fillColor=none;top=0;left=0;bottom=0;right=0;align=left;spacingLeft=6;fontStyle=5;overflow=hidden;whiteSpace=wrap;html=1;" parent="TO627fWTAbgW94jCvklS-189" vertex="1">
          <mxGeometry x="30" width="214.88395467836244" height="30" as="geometry">
            <mxRectangle width="214.88395467836244" height="30" as="alternateBounds" />
          </mxGeometry>
        </mxCell>
        <mxCell id="TO627fWTAbgW94jCvklS-192" value="" style="shape=tableRow;horizontal=0;startSize=0;swimlaneHead=0;swimlaneBody=0;fillColor=none;collapsible=0;dropTarget=0;points=[[0,0.5],[1,0.5]];portConstraint=eastwest;top=0;left=0;right=0;bottom=0;" parent="TO627fWTAbgW94jCvklS-188" vertex="1">
          <mxGeometry y="60" width="244.88395467836244" height="30" as="geometry" />
        </mxCell>
        <mxCell id="TO627fWTAbgW94jCvklS-193" value="" style="shape=partialRectangle;connectable=0;fillColor=none;top=0;left=0;bottom=0;right=0;editable=1;overflow=hidden;whiteSpace=wrap;html=1;" parent="TO627fWTAbgW94jCvklS-192" vertex="1">
          <mxGeometry width="30" height="30" as="geometry">
            <mxRectangle width="30" height="30" as="alternateBounds" />
          </mxGeometry>
        </mxCell>
        <mxCell id="TO627fWTAbgW94jCvklS-194" value="name VARCHAR NN" style="shape=partialRectangle;connectable=0;fillColor=none;top=0;left=0;bottom=0;right=0;align=left;spacingLeft=6;overflow=hidden;whiteSpace=wrap;html=1;" parent="TO627fWTAbgW94jCvklS-192" vertex="1">
          <mxGeometry x="30" width="214.88395467836244" height="30" as="geometry">
            <mxRectangle width="214.88395467836244" height="30" as="alternateBounds" />
          </mxGeometry>
        </mxCell>
        <mxCell id="TO627fWTAbgW94jCvklS-195" value="" style="shape=tableRow;horizontal=0;startSize=0;swimlaneHead=0;swimlaneBody=0;fillColor=none;collapsible=0;dropTarget=0;points=[[0,0.5],[1,0.5]];portConstraint=eastwest;top=0;left=0;right=0;bottom=0;" parent="TO627fWTAbgW94jCvklS-188" vertex="1">
          <mxGeometry y="90" width="244.88395467836244" height="30" as="geometry" />
        </mxCell>
        <mxCell id="TO627fWTAbgW94jCvklS-196" value="" style="shape=partialRectangle;connectable=0;fillColor=none;top=0;left=0;bottom=0;right=0;editable=1;overflow=hidden;whiteSpace=wrap;html=1;" parent="TO627fWTAbgW94jCvklS-195" vertex="1">
          <mxGeometry width="30" height="30" as="geometry">
            <mxRectangle width="30" height="30" as="alternateBounds" />
          </mxGeometry>
        </mxCell>
        <mxCell id="TO627fWTAbgW94jCvklS-197" value="quantity INT NN" style="shape=partialRectangle;connectable=0;fillColor=none;top=0;left=0;bottom=0;right=0;align=left;spacingLeft=6;overflow=hidden;whiteSpace=wrap;html=1;" parent="TO627fWTAbgW94jCvklS-195" vertex="1">
          <mxGeometry x="30" width="214.88395467836244" height="30" as="geometry">
            <mxRectangle width="214.88395467836244" height="30" as="alternateBounds" />
          </mxGeometry>
        </mxCell>
        <mxCell id="TO627fWTAbgW94jCvklS-198" value="" style="shape=tableRow;horizontal=0;startSize=0;swimlaneHead=0;swimlaneBody=0;fillColor=none;collapsible=0;dropTarget=0;points=[[0,0.5],[1,0.5]];portConstraint=eastwest;top=0;left=0;right=0;bottom=0;" parent="TO627fWTAbgW94jCvklS-188" vertex="1">
          <mxGeometry y="120" width="244.88395467836244" height="30" as="geometry" />
        </mxCell>
        <mxCell id="TO627fWTAbgW94jCvklS-199" value="" style="shape=partialRectangle;connectable=0;fillColor=none;top=0;left=0;bottom=0;right=0;editable=1;overflow=hidden;whiteSpace=wrap;html=1;" parent="TO627fWTAbgW94jCvklS-198" vertex="1">
          <mxGeometry width="30" height="30" as="geometry">
            <mxRectangle width="30" height="30" as="alternateBounds" />
          </mxGeometry>
        </mxCell>
        <mxCell id="TO627fWTAbgW94jCvklS-200" value="price INT NN" style="shape=partialRectangle;connectable=0;fillColor=none;top=0;left=0;bottom=0;right=0;align=left;spacingLeft=6;overflow=hidden;whiteSpace=wrap;html=1;" parent="TO627fWTAbgW94jCvklS-198" vertex="1">
          <mxGeometry x="30" width="214.88395467836244" height="30" as="geometry">
            <mxRectangle width="214.88395467836244" height="30" as="alternateBounds" />
          </mxGeometry>
        </mxCell>
        <mxCell id="TO627fWTAbgW94jCvklS-222" value="" style="shape=tableRow;horizontal=0;startSize=0;swimlaneHead=0;swimlaneBody=0;fillColor=none;collapsible=0;dropTarget=0;points=[[0,0.5],[1,0.5]];portConstraint=eastwest;top=0;left=0;right=0;bottom=0;" parent="TO627fWTAbgW94jCvklS-188" vertex="1">
          <mxGeometry y="150" width="244.88395467836244" height="30" as="geometry" />
        </mxCell>
        <mxCell id="TO627fWTAbgW94jCvklS-223" value="FK" style="shape=partialRectangle;connectable=0;fillColor=none;top=0;left=0;bottom=0;right=0;editable=1;overflow=hidden;whiteSpace=wrap;html=1;" parent="TO627fWTAbgW94jCvklS-222" vertex="1">
          <mxGeometry width="30" height="30" as="geometry">
            <mxRectangle width="30" height="30" as="alternateBounds" />
          </mxGeometry>
        </mxCell>
        <mxCell id="TO627fWTAbgW94jCvklS-224" value="requestId" style="shape=partialRectangle;connectable=0;fillColor=none;top=0;left=0;bottom=0;right=0;align=left;spacingLeft=6;overflow=hidden;whiteSpace=wrap;html=1;" parent="TO627fWTAbgW94jCvklS-222" vertex="1">
          <mxGeometry x="30" width="214.88395467836244" height="30" as="geometry">
            <mxRectangle width="214.88395467836244" height="30" as="alternateBounds" />
          </mxGeometry>
        </mxCell>
        <mxCell id="TO627fWTAbgW94jCvklS-225" value="" style="edgeStyle=entityRelationEdgeStyle;fontSize=12;html=1;endArrow=ERoneToMany;startArrow=ERmandOne;rounded=0;exitX=1;exitY=0.5;exitDx=0;exitDy=0;entryX=0;entryY=0.5;entryDx=0;entryDy=0;" parent="1" source="wUR_fCZZNTFB3ing8XWp-2" target="TO627fWTAbgW94jCvklS-222" edge="1">
          <mxGeometry width="100" height="100" relative="1" as="geometry">
            <mxPoint x="684" y="225" as="sourcePoint" />
            <mxPoint x="784" y="125" as="targetPoint" />
          </mxGeometry>
        </mxCell>
        <mxCell id="X5-aWvdIGJbd734DBQmP-1" value="Room" style="shape=table;startSize=30;container=1;collapsible=1;childLayout=tableLayout;fixedRows=1;rowLines=0;fontStyle=1;align=center;resizeLast=1;html=1;" parent="1" vertex="1">
          <mxGeometry x="112" y="109" width="241" height="150" as="geometry" />
        </mxCell>
        <mxCell id="X5-aWvdIGJbd734DBQmP-2" value="" style="shape=tableRow;horizontal=0;startSize=0;swimlaneHead=0;swimlaneBody=0;fillColor=none;collapsible=0;dropTarget=0;points=[[0,0.5],[1,0.5]];portConstraint=eastwest;top=0;left=0;right=0;bottom=1;" parent="X5-aWvdIGJbd734DBQmP-1" vertex="1">
          <mxGeometry y="30" width="241" height="30" as="geometry" />
        </mxCell>
        <mxCell id="X5-aWvdIGJbd734DBQmP-3" value="PK" style="shape=partialRectangle;connectable=0;fillColor=none;top=0;left=0;bottom=0;right=0;fontStyle=1;overflow=hidden;whiteSpace=wrap;html=1;" parent="X5-aWvdIGJbd734DBQmP-2" vertex="1">
          <mxGeometry width="45.76504629629622" height="30" as="geometry">
            <mxRectangle width="45.76504629629622" height="30" as="alternateBounds" />
          </mxGeometry>
        </mxCell>
        <mxCell id="X5-aWvdIGJbd734DBQmP-4" value="&lt;span style=&quot;font-weight: normal;&quot;&gt;id VARCHAR&lt;/span&gt;" style="shape=partialRectangle;connectable=0;fillColor=none;top=0;left=0;bottom=0;right=0;align=left;spacingLeft=6;fontStyle=5;overflow=hidden;whiteSpace=wrap;html=1;" parent="X5-aWvdIGJbd734DBQmP-2" vertex="1">
          <mxGeometry x="45.76504629629622" width="195.23495370370378" height="30" as="geometry">
            <mxRectangle width="195.23495370370378" height="30" as="alternateBounds" />
          </mxGeometry>
        </mxCell>
        <mxCell id="X5-aWvdIGJbd734DBQmP-5" value="" style="shape=tableRow;horizontal=0;startSize=0;swimlaneHead=0;swimlaneBody=0;fillColor=none;collapsible=0;dropTarget=0;points=[[0,0.5],[1,0.5]];portConstraint=eastwest;top=0;left=0;right=0;bottom=0;" parent="X5-aWvdIGJbd734DBQmP-1" vertex="1">
          <mxGeometry y="60" width="241" height="30" as="geometry" />
        </mxCell>
        <mxCell id="X5-aWvdIGJbd734DBQmP-6" value="" style="shape=partialRectangle;connectable=0;fillColor=none;top=0;left=0;bottom=0;right=0;editable=1;overflow=hidden;whiteSpace=wrap;html=1;" parent="X5-aWvdIGJbd734DBQmP-5" vertex="1">
          <mxGeometry width="45.76504629629622" height="30" as="geometry">
            <mxRectangle width="45.76504629629622" height="30" as="alternateBounds" />
          </mxGeometry>
        </mxCell>
        <mxCell id="X5-aWvdIGJbd734DBQmP-7" value="created_at DATE NN" style="shape=partialRectangle;connectable=0;fillColor=none;top=0;left=0;bottom=0;right=0;align=left;spacingLeft=6;overflow=hidden;whiteSpace=wrap;html=1;" parent="X5-aWvdIGJbd734DBQmP-5" vertex="1">
          <mxGeometry x="45.76504629629622" width="195.23495370370378" height="30" as="geometry">
            <mxRectangle width="195.23495370370378" height="30" as="alternateBounds" />
          </mxGeometry>
        </mxCell>
        <mxCell id="X5-aWvdIGJbd734DBQmP-8" value="" style="shape=tableRow;horizontal=0;startSize=0;swimlaneHead=0;swimlaneBody=0;fillColor=none;collapsible=0;dropTarget=0;points=[[0,0.5],[1,0.5]];portConstraint=eastwest;top=0;left=0;right=0;bottom=0;" parent="X5-aWvdIGJbd734DBQmP-1" vertex="1">
          <mxGeometry y="90" width="241" height="30" as="geometry" />
        </mxCell>
        <mxCell id="X5-aWvdIGJbd734DBQmP-9" value="" style="shape=partialRectangle;connectable=0;fillColor=none;top=0;left=0;bottom=0;right=0;editable=1;overflow=hidden;whiteSpace=wrap;html=1;" parent="X5-aWvdIGJbd734DBQmP-8" vertex="1">
          <mxGeometry width="45.76504629629622" height="30" as="geometry">
            <mxRectangle width="45.76504629629622" height="30" as="alternateBounds" />
          </mxGeometry>
        </mxCell>
        <mxCell id="X5-aWvdIGJbd734DBQmP-10" value="isClosed BOOLEAN NN" style="shape=partialRectangle;connectable=0;fillColor=none;top=0;left=0;bottom=0;right=0;align=left;spacingLeft=6;overflow=hidden;whiteSpace=wrap;html=1;" parent="X5-aWvdIGJbd734DBQmP-8" vertex="1">
          <mxGeometry x="45.76504629629622" width="195.23495370370378" height="30" as="geometry">
            <mxRectangle width="195.23495370370378" height="30" as="alternateBounds" />
          </mxGeometry>
        </mxCell>
        <mxCell id="X5-aWvdIGJbd734DBQmP-11" value="" style="shape=tableRow;horizontal=0;startSize=0;swimlaneHead=0;swimlaneBody=0;fillColor=none;collapsible=0;dropTarget=0;points=[[0,0.5],[1,0.5]];portConstraint=eastwest;top=0;left=0;right=0;bottom=0;" parent="X5-aWvdIGJbd734DBQmP-1" vertex="1">
          <mxGeometry y="120" width="241" height="30" as="geometry" />
        </mxCell>
        <mxCell id="X5-aWvdIGJbd734DBQmP-12" value="FK" style="shape=partialRectangle;connectable=0;fillColor=none;top=0;left=0;bottom=0;right=0;editable=1;overflow=hidden;whiteSpace=wrap;html=1;" parent="X5-aWvdIGJbd734DBQmP-11" vertex="1">
          <mxGeometry width="45.76504629629622" height="30" as="geometry">
            <mxRectangle width="45.76504629629622" height="30" as="alternateBounds" />
          </mxGeometry>
        </mxCell>
        <mxCell id="X5-aWvdIGJbd734DBQmP-13" value="requestId" style="shape=partialRectangle;connectable=0;fillColor=none;top=0;left=0;bottom=0;right=0;align=left;spacingLeft=6;overflow=hidden;whiteSpace=wrap;html=1;" parent="X5-aWvdIGJbd734DBQmP-11" vertex="1">
          <mxGeometry x="45.76504629629622" width="195.23495370370378" height="30" as="geometry">
            <mxRectangle width="195.23495370370378" height="30" as="alternateBounds" />
          </mxGeometry>
        </mxCell>
        <mxCell id="X5-aWvdIGJbd734DBQmP-25" value="RoomUser" style="shape=table;startSize=30;container=1;collapsible=1;childLayout=tableLayout;fixedRows=1;rowLines=0;fontStyle=1;align=center;resizeLast=1;html=1;" parent="1" vertex="1">
          <mxGeometry x="-252" y="40" width="241" height="150" as="geometry" />
        </mxCell>
        <mxCell id="X5-aWvdIGJbd734DBQmP-26" value="" style="shape=tableRow;horizontal=0;startSize=0;swimlaneHead=0;swimlaneBody=0;fillColor=none;collapsible=0;dropTarget=0;points=[[0,0.5],[1,0.5]];portConstraint=eastwest;top=0;left=0;right=0;bottom=1;" parent="X5-aWvdIGJbd734DBQmP-25" vertex="1">
          <mxGeometry y="30" width="241" height="30" as="geometry" />
        </mxCell>
        <mxCell id="X5-aWvdIGJbd734DBQmP-27" value="PK" style="shape=partialRectangle;connectable=0;fillColor=none;top=0;left=0;bottom=0;right=0;fontStyle=1;overflow=hidden;whiteSpace=wrap;html=1;" parent="X5-aWvdIGJbd734DBQmP-26" vertex="1">
          <mxGeometry width="30" height="30" as="geometry">
            <mxRectangle width="30" height="30" as="alternateBounds" />
          </mxGeometry>
        </mxCell>
        <mxCell id="X5-aWvdIGJbd734DBQmP-28" value="&lt;span style=&quot;font-weight: normal;&quot;&gt;id INT&lt;/span&gt;" style="shape=partialRectangle;connectable=0;fillColor=none;top=0;left=0;bottom=0;right=0;align=left;spacingLeft=6;fontStyle=5;overflow=hidden;whiteSpace=wrap;html=1;" parent="X5-aWvdIGJbd734DBQmP-26" vertex="1">
          <mxGeometry x="30" width="211" height="30" as="geometry">
            <mxRectangle width="211" height="30" as="alternateBounds" />
          </mxGeometry>
        </mxCell>
        <mxCell id="X5-aWvdIGJbd734DBQmP-29" value="" style="shape=tableRow;horizontal=0;startSize=0;swimlaneHead=0;swimlaneBody=0;fillColor=none;collapsible=0;dropTarget=0;points=[[0,0.5],[1,0.5]];portConstraint=eastwest;top=0;left=0;right=0;bottom=0;" parent="X5-aWvdIGJbd734DBQmP-25" vertex="1">
          <mxGeometry y="60" width="241" height="30" as="geometry" />
        </mxCell>
        <mxCell id="X5-aWvdIGJbd734DBQmP-30" value="" style="shape=partialRectangle;connectable=0;fillColor=none;top=0;left=0;bottom=0;right=0;editable=1;overflow=hidden;whiteSpace=wrap;html=1;" parent="X5-aWvdIGJbd734DBQmP-29" vertex="1">
          <mxGeometry width="30" height="30" as="geometry">
            <mxRectangle width="30" height="30" as="alternateBounds" />
          </mxGeometry>
        </mxCell>
        <mxCell id="X5-aWvdIGJbd734DBQmP-31" value="role VARCHAR ENUM NN" style="shape=partialRectangle;connectable=0;fillColor=none;top=0;left=0;bottom=0;right=0;align=left;spacingLeft=6;overflow=hidden;whiteSpace=wrap;html=1;" parent="X5-aWvdIGJbd734DBQmP-29" vertex="1">
          <mxGeometry x="30" width="211" height="30" as="geometry">
            <mxRectangle width="211" height="30" as="alternateBounds" />
          </mxGeometry>
        </mxCell>
        <mxCell id="X5-aWvdIGJbd734DBQmP-32" value="" style="shape=tableRow;horizontal=0;startSize=0;swimlaneHead=0;swimlaneBody=0;fillColor=none;collapsible=0;dropTarget=0;points=[[0,0.5],[1,0.5]];portConstraint=eastwest;top=0;left=0;right=0;bottom=0;" parent="X5-aWvdIGJbd734DBQmP-25" vertex="1">
          <mxGeometry y="90" width="241" height="30" as="geometry" />
        </mxCell>
        <mxCell id="X5-aWvdIGJbd734DBQmP-33" value="FK" style="shape=partialRectangle;connectable=0;fillColor=none;top=0;left=0;bottom=0;right=0;editable=1;overflow=hidden;whiteSpace=wrap;html=1;" parent="X5-aWvdIGJbd734DBQmP-32" vertex="1">
          <mxGeometry width="30" height="30" as="geometry">
            <mxRectangle width="30" height="30" as="alternateBounds" />
          </mxGeometry>
        </mxCell>
        <mxCell id="X5-aWvdIGJbd734DBQmP-34" value="roomId" style="shape=partialRectangle;connectable=0;fillColor=none;top=0;left=0;bottom=0;right=0;align=left;spacingLeft=6;overflow=hidden;whiteSpace=wrap;html=1;" parent="X5-aWvdIGJbd734DBQmP-32" vertex="1">
          <mxGeometry x="30" width="211" height="30" as="geometry">
            <mxRectangle width="211" height="30" as="alternateBounds" />
          </mxGeometry>
        </mxCell>
        <mxCell id="X5-aWvdIGJbd734DBQmP-35" value="" style="shape=tableRow;horizontal=0;startSize=0;swimlaneHead=0;swimlaneBody=0;fillColor=none;collapsible=0;dropTarget=0;points=[[0,0.5],[1,0.5]];portConstraint=eastwest;top=0;left=0;right=0;bottom=0;" parent="X5-aWvdIGJbd734DBQmP-25" vertex="1">
          <mxGeometry y="120" width="241" height="30" as="geometry" />
        </mxCell>
        <mxCell id="X5-aWvdIGJbd734DBQmP-36" value="FK" style="shape=partialRectangle;connectable=0;fillColor=none;top=0;left=0;bottom=0;right=0;editable=1;overflow=hidden;whiteSpace=wrap;html=1;" parent="X5-aWvdIGJbd734DBQmP-35" vertex="1">
          <mxGeometry width="30" height="30" as="geometry">
            <mxRectangle width="30" height="30" as="alternateBounds" />
          </mxGeometry>
        </mxCell>
        <mxCell id="X5-aWvdIGJbd734DBQmP-37" value="userId" style="shape=partialRectangle;connectable=0;fillColor=none;top=0;left=0;bottom=0;right=0;align=left;spacingLeft=6;overflow=hidden;whiteSpace=wrap;html=1;" parent="X5-aWvdIGJbd734DBQmP-35" vertex="1">
          <mxGeometry x="30" width="211" height="30" as="geometry">
            <mxRectangle width="211" height="30" as="alternateBounds" />
          </mxGeometry>
        </mxCell>
        <mxCell id="X5-aWvdIGJbd734DBQmP-38" value="Message" style="shape=table;startSize=30;container=1;collapsible=1;childLayout=tableLayout;fixedRows=1;rowLines=0;fontStyle=1;align=center;resizeLast=1;html=1;" parent="1" vertex="1">
          <mxGeometry x="-271" y="267" width="241" height="180" as="geometry" />
        </mxCell>
        <mxCell id="X5-aWvdIGJbd734DBQmP-39" value="" style="shape=tableRow;horizontal=0;startSize=0;swimlaneHead=0;swimlaneBody=0;fillColor=none;collapsible=0;dropTarget=0;points=[[0,0.5],[1,0.5]];portConstraint=eastwest;top=0;left=0;right=0;bottom=1;" parent="X5-aWvdIGJbd734DBQmP-38" vertex="1">
          <mxGeometry y="30" width="241" height="30" as="geometry" />
        </mxCell>
        <mxCell id="X5-aWvdIGJbd734DBQmP-40" value="PK" style="shape=partialRectangle;connectable=0;fillColor=none;top=0;left=0;bottom=0;right=0;fontStyle=1;overflow=hidden;whiteSpace=wrap;html=1;" parent="X5-aWvdIGJbd734DBQmP-39" vertex="1">
          <mxGeometry width="30" height="30" as="geometry">
            <mxRectangle width="30" height="30" as="alternateBounds" />
          </mxGeometry>
        </mxCell>
        <mxCell id="X5-aWvdIGJbd734DBQmP-41" value="&lt;span style=&quot;font-weight: normal;&quot;&gt;id INT&lt;/span&gt;" style="shape=partialRectangle;connectable=0;fillColor=none;top=0;left=0;bottom=0;right=0;align=left;spacingLeft=6;fontStyle=5;overflow=hidden;whiteSpace=wrap;html=1;" parent="X5-aWvdIGJbd734DBQmP-39" vertex="1">
          <mxGeometry x="30" width="211" height="30" as="geometry">
            <mxRectangle width="211" height="30" as="alternateBounds" />
          </mxGeometry>
        </mxCell>
        <mxCell id="X5-aWvdIGJbd734DBQmP-42" value="" style="shape=tableRow;horizontal=0;startSize=0;swimlaneHead=0;swimlaneBody=0;fillColor=none;collapsible=0;dropTarget=0;points=[[0,0.5],[1,0.5]];portConstraint=eastwest;top=0;left=0;right=0;bottom=0;" parent="X5-aWvdIGJbd734DBQmP-38" vertex="1">
          <mxGeometry y="60" width="241" height="30" as="geometry" />
        </mxCell>
        <mxCell id="X5-aWvdIGJbd734DBQmP-43" value="" style="shape=partialRectangle;connectable=0;fillColor=none;top=0;left=0;bottom=0;right=0;editable=1;overflow=hidden;whiteSpace=wrap;html=1;" parent="X5-aWvdIGJbd734DBQmP-42" vertex="1">
          <mxGeometry width="30" height="30" as="geometry">
            <mxRectangle width="30" height="30" as="alternateBounds" />
          </mxGeometry>
        </mxCell>
        <mxCell id="X5-aWvdIGJbd734DBQmP-44" value="body VARCHAR NN" style="shape=partialRectangle;connectable=0;fillColor=none;top=0;left=0;bottom=0;right=0;align=left;spacingLeft=6;overflow=hidden;whiteSpace=wrap;html=1;" parent="X5-aWvdIGJbd734DBQmP-42" vertex="1">
          <mxGeometry x="30" width="211" height="30" as="geometry">
            <mxRectangle width="211" height="30" as="alternateBounds" />
          </mxGeometry>
        </mxCell>
        <mxCell id="X5-aWvdIGJbd734DBQmP-51" value="" style="shape=tableRow;horizontal=0;startSize=0;swimlaneHead=0;swimlaneBody=0;fillColor=none;collapsible=0;dropTarget=0;points=[[0,0.5],[1,0.5]];portConstraint=eastwest;top=0;left=0;right=0;bottom=0;" parent="X5-aWvdIGJbd734DBQmP-38" vertex="1">
          <mxGeometry y="90" width="241" height="30" as="geometry" />
        </mxCell>
        <mxCell id="X5-aWvdIGJbd734DBQmP-52" value="" style="shape=partialRectangle;connectable=0;fillColor=none;top=0;left=0;bottom=0;right=0;editable=1;overflow=hidden;whiteSpace=wrap;html=1;" parent="X5-aWvdIGJbd734DBQmP-51" vertex="1">
          <mxGeometry width="30" height="30" as="geometry">
            <mxRectangle width="30" height="30" as="alternateBounds" />
          </mxGeometry>
        </mxCell>
        <mxCell id="X5-aWvdIGJbd734DBQmP-53" value="created_at DATE NN" style="shape=partialRectangle;connectable=0;fillColor=none;top=0;left=0;bottom=0;right=0;align=left;spacingLeft=6;overflow=hidden;whiteSpace=wrap;html=1;" parent="X5-aWvdIGJbd734DBQmP-51" vertex="1">
          <mxGeometry x="30" width="211" height="30" as="geometry">
            <mxRectangle width="211" height="30" as="alternateBounds" />
          </mxGeometry>
        </mxCell>
        <mxCell id="X5-aWvdIGJbd734DBQmP-45" value="" style="shape=tableRow;horizontal=0;startSize=0;swimlaneHead=0;swimlaneBody=0;fillColor=none;collapsible=0;dropTarget=0;points=[[0,0.5],[1,0.5]];portConstraint=eastwest;top=0;left=0;right=0;bottom=0;" parent="X5-aWvdIGJbd734DBQmP-38" vertex="1">
          <mxGeometry y="120" width="241" height="30" as="geometry" />
        </mxCell>
        <mxCell id="X5-aWvdIGJbd734DBQmP-46" value="FK" style="shape=partialRectangle;connectable=0;fillColor=none;top=0;left=0;bottom=0;right=0;editable=1;overflow=hidden;whiteSpace=wrap;html=1;" parent="X5-aWvdIGJbd734DBQmP-45" vertex="1">
          <mxGeometry width="30" height="30" as="geometry">
            <mxRectangle width="30" height="30" as="alternateBounds" />
          </mxGeometry>
        </mxCell>
        <mxCell id="X5-aWvdIGJbd734DBQmP-47" value="roomId" style="shape=partialRectangle;connectable=0;fillColor=none;top=0;left=0;bottom=0;right=0;align=left;spacingLeft=6;overflow=hidden;whiteSpace=wrap;html=1;" parent="X5-aWvdIGJbd734DBQmP-45" vertex="1">
          <mxGeometry x="30" width="211" height="30" as="geometry">
            <mxRectangle width="211" height="30" as="alternateBounds" />
          </mxGeometry>
        </mxCell>
        <mxCell id="X5-aWvdIGJbd734DBQmP-48" value="" style="shape=tableRow;horizontal=0;startSize=0;swimlaneHead=0;swimlaneBody=0;fillColor=none;collapsible=0;dropTarget=0;points=[[0,0.5],[1,0.5]];portConstraint=eastwest;top=0;left=0;right=0;bottom=0;" parent="X5-aWvdIGJbd734DBQmP-38" vertex="1">
          <mxGeometry y="150" width="241" height="30" as="geometry" />
        </mxCell>
        <mxCell id="X5-aWvdIGJbd734DBQmP-49" value="FK" style="shape=partialRectangle;connectable=0;fillColor=none;top=0;left=0;bottom=0;right=0;editable=1;overflow=hidden;whiteSpace=wrap;html=1;" parent="X5-aWvdIGJbd734DBQmP-48" vertex="1">
          <mxGeometry width="30" height="30" as="geometry">
            <mxRectangle width="30" height="30" as="alternateBounds" />
          </mxGeometry>
        </mxCell>
        <mxCell id="X5-aWvdIGJbd734DBQmP-50" value="userId" style="shape=partialRectangle;connectable=0;fillColor=none;top=0;left=0;bottom=0;right=0;align=left;spacingLeft=6;overflow=hidden;whiteSpace=wrap;html=1;" parent="X5-aWvdIGJbd734DBQmP-48" vertex="1">
          <mxGeometry x="30" width="211" height="30" as="geometry">
            <mxRectangle width="211" height="30" as="alternateBounds" />
          </mxGeometry>
        </mxCell>
        <mxCell id="X5-aWvdIGJbd734DBQmP-54" value="" style="edgeStyle=entityRelationEdgeStyle;fontSize=12;html=1;endArrow=ERzeroToMany;startArrow=ERmandOne;rounded=0;entryX=1;entryY=0.5;entryDx=0;entryDy=0;exitX=-0.003;exitY=0.208;exitDx=0;exitDy=0;exitPerimeter=0;" parent="1" source="X5-aWvdIGJbd734DBQmP-2" target="X5-aWvdIGJbd734DBQmP-32" edge="1">
          <mxGeometry width="100" height="100" relative="1" as="geometry">
            <mxPoint x="42" y="339" as="sourcePoint" />
            <mxPoint x="142" y="239" as="targetPoint" />
          </mxGeometry>
        </mxCell>
        <mxCell id="X5-aWvdIGJbd734DBQmP-55" value="" style="edgeStyle=entityRelationEdgeStyle;fontSize=12;html=1;endArrow=ERzeroToMany;startArrow=ERmandOne;rounded=0;entryX=1;entryY=0.5;entryDx=0;entryDy=0;exitX=0;exitY=0.23;exitDx=0;exitDy=0;exitPerimeter=0;" parent="1" source="R9eSc8jSqoR7vsGQx-Jw-10" target="X5-aWvdIGJbd734DBQmP-35" edge="1">
          <mxGeometry width="100" height="100" relative="1" as="geometry">
            <mxPoint x="128" y="136" as="sourcePoint" />
            <mxPoint x="2" y="383" as="targetPoint" />
          </mxGeometry>
        </mxCell>
        <mxCell id="X5-aWvdIGJbd734DBQmP-56" value="" style="edgeStyle=entityRelationEdgeStyle;fontSize=12;html=1;endArrow=ERzeroToMany;startArrow=ERmandOne;rounded=0;entryX=1;entryY=0.5;entryDx=0;entryDy=0;exitX=0.004;exitY=0.712;exitDx=0;exitDy=0;exitPerimeter=0;" parent="1" source="X5-aWvdIGJbd734DBQmP-2" target="X5-aWvdIGJbd734DBQmP-45" edge="1">
          <mxGeometry width="100" height="100" relative="1" as="geometry">
            <mxPoint x="114" y="503" as="sourcePoint" />
            <mxPoint x="10" y="231" as="targetPoint" />
          </mxGeometry>
        </mxCell>
        <mxCell id="X5-aWvdIGJbd734DBQmP-57" value="" style="edgeStyle=entityRelationEdgeStyle;fontSize=12;html=1;endArrow=ERzeroToMany;startArrow=ERmandOne;rounded=0;entryX=1;entryY=0.5;entryDx=0;entryDy=0;exitX=0.003;exitY=0.665;exitDx=0;exitDy=0;exitPerimeter=0;" parent="1" source="R9eSc8jSqoR7vsGQx-Jw-10" target="X5-aWvdIGJbd734DBQmP-48" edge="1">
          <mxGeometry width="100" height="100" relative="1" as="geometry">
            <mxPoint x="113" y="467" as="sourcePoint" />
            <mxPoint x="9" y="195" as="targetPoint" />
          </mxGeometry>
        </mxCell>
        <mxCell id="mkooONptkZ5ZFiT0lEnF-2" value="" style="edgeStyle=entityRelationEdgeStyle;fontSize=12;html=1;endArrow=ERzeroToMany;startArrow=ERmandOne;rounded=0;exitX=0.004;exitY=0.233;exitDx=0;exitDy=0;entryX=1;entryY=0.5;entryDx=0;entryDy=0;exitPerimeter=0;" parent="1" source="wUR_fCZZNTFB3ing8XWp-2" target="X5-aWvdIGJbd734DBQmP-11" edge="1">
          <mxGeometry width="100" height="100" relative="1" as="geometry">
            <mxPoint x="296" y="359" as="sourcePoint" />
            <mxPoint x="396" y="348" as="targetPoint" />
          </mxGeometry>
        </mxCell>
        <mxCell id="Es2-elUdaxDdzD4kDM_P-1" value="DraftRequest" style="shape=table;startSize=30;container=1;collapsible=1;childLayout=tableLayout;fixedRows=1;rowLines=0;fontStyle=1;align=center;resizeLast=1;html=1;" parent="1" vertex="1">
          <mxGeometry x="486" y="321" width="244.88" height="391" as="geometry" />
        </mxCell>
        <mxCell id="Es2-elUdaxDdzD4kDM_P-2" value="" style="shape=tableRow;horizontal=0;startSize=0;swimlaneHead=0;swimlaneBody=0;fillColor=none;collapsible=0;dropTarget=0;points=[[0,0.5],[1,0.5]];portConstraint=eastwest;top=0;left=0;right=0;bottom=1;" parent="Es2-elUdaxDdzD4kDM_P-1" vertex="1">
          <mxGeometry y="30" width="244.88" height="30" as="geometry" />
        </mxCell>
        <mxCell id="Es2-elUdaxDdzD4kDM_P-3" value="PK" style="shape=partialRectangle;connectable=0;fillColor=none;top=0;left=0;bottom=0;right=0;fontStyle=1;overflow=hidden;whiteSpace=wrap;html=1;" parent="Es2-elUdaxDdzD4kDM_P-2" vertex="1">
          <mxGeometry width="29.500000000000114" height="30" as="geometry">
            <mxRectangle width="29.500000000000114" height="30" as="alternateBounds" />
          </mxGeometry>
        </mxCell>
        <mxCell id="Es2-elUdaxDdzD4kDM_P-4" value="&lt;span style=&quot;font-weight: normal;&quot;&gt;id INT&lt;/span&gt;" style="shape=partialRectangle;connectable=0;fillColor=none;top=0;left=0;bottom=0;right=0;align=left;spacingLeft=6;fontStyle=5;overflow=hidden;whiteSpace=wrap;html=1;" parent="Es2-elUdaxDdzD4kDM_P-2" vertex="1">
          <mxGeometry x="29.500000000000114" width="215.37999999999988" height="30" as="geometry">
            <mxRectangle width="215.37999999999988" height="30" as="alternateBounds" />
          </mxGeometry>
        </mxCell>
        <mxCell id="Es2-elUdaxDdzD4kDM_P-5" value="" style="shape=tableRow;horizontal=0;startSize=0;swimlaneHead=0;swimlaneBody=0;fillColor=none;collapsible=0;dropTarget=0;points=[[0,0.5],[1,0.5]];portConstraint=eastwest;top=0;left=0;right=0;bottom=0;" parent="Es2-elUdaxDdzD4kDM_P-1" vertex="1">
          <mxGeometry y="60" width="244.88" height="30" as="geometry" />
        </mxCell>
        <mxCell id="Es2-elUdaxDdzD4kDM_P-6" value="" style="shape=partialRectangle;connectable=0;fillColor=none;top=0;left=0;bottom=0;right=0;editable=1;overflow=hidden;whiteSpace=wrap;html=1;" parent="Es2-elUdaxDdzD4kDM_P-5" vertex="1">
          <mxGeometry width="29.500000000000114" height="30" as="geometry">
            <mxRectangle width="29.500000000000114" height="30" as="alternateBounds" />
          </mxGeometry>
        </mxCell>
        <mxCell id="Es2-elUdaxDdzD4kDM_P-7" value="title VARCHAR NN" style="shape=partialRectangle;connectable=0;fillColor=none;top=0;left=0;bottom=0;right=0;align=left;spacingLeft=6;overflow=hidden;whiteSpace=wrap;html=1;" parent="Es2-elUdaxDdzD4kDM_P-5" vertex="1">
          <mxGeometry x="29.500000000000114" width="215.37999999999988" height="30" as="geometry">
            <mxRectangle width="215.37999999999988" height="30" as="alternateBounds" />
          </mxGeometry>
        </mxCell>
        <mxCell id="Es2-elUdaxDdzD4kDM_P-8" value="" style="shape=tableRow;horizontal=0;startSize=0;swimlaneHead=0;swimlaneBody=0;fillColor=none;collapsible=0;dropTarget=0;points=[[0,0.5],[1,0.5]];portConstraint=eastwest;top=0;left=0;right=0;bottom=0;" parent="Es2-elUdaxDdzD4kDM_P-1" vertex="1">
          <mxGeometry y="90" width="244.88" height="30" as="geometry" />
        </mxCell>
        <mxCell id="Es2-elUdaxDdzD4kDM_P-9" value="" style="shape=partialRectangle;connectable=0;fillColor=none;top=0;left=0;bottom=0;right=0;editable=1;overflow=hidden;whiteSpace=wrap;html=1;" parent="Es2-elUdaxDdzD4kDM_P-8" vertex="1">
          <mxGeometry width="29.500000000000114" height="30" as="geometry">
            <mxRectangle width="29.500000000000114" height="30" as="alternateBounds" />
          </mxGeometry>
        </mxCell>
        <mxCell id="Es2-elUdaxDdzD4kDM_P-10" value="location_prefecture&amp;nbsp;VARCHAR NN" style="shape=partialRectangle;connectable=0;fillColor=none;top=0;left=0;bottom=0;right=0;align=left;spacingLeft=6;overflow=hidden;whiteSpace=wrap;html=1;" parent="Es2-elUdaxDdzD4kDM_P-8" vertex="1">
          <mxGeometry x="29.500000000000114" width="215.37999999999988" height="30" as="geometry">
            <mxRectangle width="215.37999999999988" height="30" as="alternateBounds" />
          </mxGeometry>
        </mxCell>
        <mxCell id="Es2-elUdaxDdzD4kDM_P-11" value="" style="shape=tableRow;horizontal=0;startSize=0;swimlaneHead=0;swimlaneBody=0;fillColor=none;collapsible=0;dropTarget=0;points=[[0,0.5],[1,0.5]];portConstraint=eastwest;top=0;left=0;right=0;bottom=0;" parent="Es2-elUdaxDdzD4kDM_P-1" vertex="1">
          <mxGeometry y="120" width="244.88" height="30" as="geometry" />
        </mxCell>
        <mxCell id="Es2-elUdaxDdzD4kDM_P-12" value="" style="shape=partialRectangle;connectable=0;fillColor=none;top=0;left=0;bottom=0;right=0;editable=1;overflow=hidden;whiteSpace=wrap;html=1;" parent="Es2-elUdaxDdzD4kDM_P-11" vertex="1">
          <mxGeometry width="29.500000000000114" height="30" as="geometry">
            <mxRectangle width="29.500000000000114" height="30" as="alternateBounds" />
          </mxGeometry>
        </mxCell>
        <mxCell id="Es2-elUdaxDdzD4kDM_P-13" value="location_details&amp;nbsp;VARCHAR NN" style="shape=partialRectangle;connectable=0;fillColor=none;top=0;left=0;bottom=0;right=0;align=left;spacingLeft=6;overflow=hidden;whiteSpace=wrap;html=1;" parent="Es2-elUdaxDdzD4kDM_P-11" vertex="1">
          <mxGeometry x="29.500000000000114" width="215.37999999999988" height="30" as="geometry">
            <mxRectangle width="215.37999999999988" height="30" as="alternateBounds" />
          </mxGeometry>
        </mxCell>
        <mxCell id="Es2-elUdaxDdzD4kDM_P-14" value="" style="shape=tableRow;horizontal=0;startSize=0;swimlaneHead=0;swimlaneBody=0;fillColor=none;collapsible=0;dropTarget=0;points=[[0,0.5],[1,0.5]];portConstraint=eastwest;top=0;left=0;right=0;bottom=0;" parent="Es2-elUdaxDdzD4kDM_P-1" vertex="1">
          <mxGeometry y="150" width="244.88" height="30" as="geometry" />
        </mxCell>
        <mxCell id="Es2-elUdaxDdzD4kDM_P-15" value="" style="shape=partialRectangle;connectable=0;fillColor=none;top=0;left=0;bottom=0;right=0;editable=1;overflow=hidden;whiteSpace=wrap;html=1;" parent="Es2-elUdaxDdzD4kDM_P-14" vertex="1">
          <mxGeometry width="29.500000000000114" height="30" as="geometry">
            <mxRectangle width="29.500000000000114" height="30" as="alternateBounds" />
          </mxGeometry>
        </mxCell>
        <mxCell id="Es2-elUdaxDdzD4kDM_P-16" value="delivery_prefecture VARCHAR NN" style="shape=partialRectangle;connectable=0;fillColor=none;top=0;left=0;bottom=0;right=0;align=left;spacingLeft=6;overflow=hidden;whiteSpace=wrap;html=1;" parent="Es2-elUdaxDdzD4kDM_P-14" vertex="1">
          <mxGeometry x="29.500000000000114" width="215.37999999999988" height="30" as="geometry">
            <mxRectangle width="215.37999999999988" height="30" as="alternateBounds" />
          </mxGeometry>
        </mxCell>
        <mxCell id="Es2-elUdaxDdzD4kDM_P-17" value="" style="shape=tableRow;horizontal=0;startSize=0;swimlaneHead=0;swimlaneBody=0;fillColor=none;collapsible=0;dropTarget=0;points=[[0,0.5],[1,0.5]];portConstraint=eastwest;top=0;left=0;right=0;bottom=0;" parent="Es2-elUdaxDdzD4kDM_P-1" vertex="1">
          <mxGeometry y="180" width="244.88" height="30" as="geometry" />
        </mxCell>
        <mxCell id="Es2-elUdaxDdzD4kDM_P-18" value="" style="shape=partialRectangle;connectable=0;fillColor=none;top=0;left=0;bottom=0;right=0;editable=1;overflow=hidden;whiteSpace=wrap;html=1;" parent="Es2-elUdaxDdzD4kDM_P-17" vertex="1">
          <mxGeometry width="29.500000000000114" height="30" as="geometry">
            <mxRectangle width="29.500000000000114" height="30" as="alternateBounds" />
          </mxGeometry>
        </mxCell>
        <mxCell id="Es2-elUdaxDdzD4kDM_P-19" value="delivery_details DATE NN" style="shape=partialRectangle;connectable=0;fillColor=none;top=0;left=0;bottom=0;right=0;align=left;spacingLeft=6;overflow=hidden;whiteSpace=wrap;html=1;" parent="Es2-elUdaxDdzD4kDM_P-17" vertex="1">
          <mxGeometry x="29.500000000000114" width="215.37999999999988" height="30" as="geometry">
            <mxRectangle width="215.37999999999988" height="30" as="alternateBounds" />
          </mxGeometry>
        </mxCell>
        <mxCell id="Es2-elUdaxDdzD4kDM_P-20" value="" style="shape=tableRow;horizontal=0;startSize=0;swimlaneHead=0;swimlaneBody=0;fillColor=none;collapsible=0;dropTarget=0;points=[[0,0.5],[1,0.5]];portConstraint=eastwest;top=0;left=0;right=0;bottom=0;" parent="Es2-elUdaxDdzD4kDM_P-1" vertex="1">
          <mxGeometry y="210" width="244.88" height="30" as="geometry" />
        </mxCell>
        <mxCell id="Es2-elUdaxDdzD4kDM_P-21" value="" style="shape=partialRectangle;connectable=0;fillColor=none;top=0;left=0;bottom=0;right=0;editable=1;overflow=hidden;whiteSpace=wrap;html=1;" parent="Es2-elUdaxDdzD4kDM_P-20" vertex="1">
          <mxGeometry width="29.500000000000114" height="30" as="geometry">
            <mxRectangle width="29.500000000000114" height="30" as="alternateBounds" />
          </mxGeometry>
        </mxCell>
        <mxCell id="Es2-elUdaxDdzD4kDM_P-22" value="description VARCHAR" style="shape=partialRectangle;connectable=0;fillColor=none;top=0;left=0;bottom=0;right=0;align=left;spacingLeft=6;overflow=hidden;whiteSpace=wrap;html=1;" parent="Es2-elUdaxDdzD4kDM_P-20" vertex="1">
          <mxGeometry x="29.500000000000114" width="215.37999999999988" height="30" as="geometry">
            <mxRectangle width="215.37999999999988" height="30" as="alternateBounds" />
          </mxGeometry>
        </mxCell>
        <mxCell id="Es2-elUdaxDdzD4kDM_P-23" value="" style="shape=tableRow;horizontal=0;startSize=0;swimlaneHead=0;swimlaneBody=0;fillColor=none;collapsible=0;dropTarget=0;points=[[0,0.5],[1,0.5]];portConstraint=eastwest;top=0;left=0;right=0;bottom=0;" parent="Es2-elUdaxDdzD4kDM_P-1" vertex="1">
          <mxGeometry y="240" width="244.88" height="30" as="geometry" />
        </mxCell>
        <mxCell id="Es2-elUdaxDdzD4kDM_P-24" value="" style="shape=partialRectangle;connectable=0;fillColor=none;top=0;left=0;bottom=0;right=0;editable=1;overflow=hidden;whiteSpace=wrap;html=1;" parent="Es2-elUdaxDdzD4kDM_P-23" vertex="1">
          <mxGeometry width="29.500000000000114" height="30" as="geometry">
            <mxRectangle width="29.500000000000114" height="30" as="alternateBounds" />
          </mxGeometry>
        </mxCell>
        <mxCell id="Es2-elUdaxDdzD4kDM_P-25" value="status VARCHAR ENUM NN" style="shape=partialRectangle;connectable=0;fillColor=none;top=0;left=0;bottom=0;right=0;align=left;spacingLeft=6;overflow=hidden;whiteSpace=wrap;html=1;" parent="Es2-elUdaxDdzD4kDM_P-23" vertex="1">
          <mxGeometry x="29.500000000000114" width="215.37999999999988" height="30" as="geometry">
            <mxRectangle width="215.37999999999988" height="30" as="alternateBounds" />
          </mxGeometry>
        </mxCell>
        <mxCell id="Es2-elUdaxDdzD4kDM_P-26" value="" style="shape=tableRow;horizontal=0;startSize=0;swimlaneHead=0;swimlaneBody=0;fillColor=none;collapsible=0;dropTarget=0;points=[[0,0.5],[1,0.5]];portConstraint=eastwest;top=0;left=0;right=0;bottom=0;" parent="Es2-elUdaxDdzD4kDM_P-1" vertex="1">
          <mxGeometry y="270" width="244.88" height="31" as="geometry" />
        </mxCell>
        <mxCell id="Es2-elUdaxDdzD4kDM_P-27" value="" style="shape=partialRectangle;connectable=0;fillColor=none;top=0;left=0;bottom=0;right=0;editable=1;overflow=hidden;whiteSpace=wrap;html=1;" parent="Es2-elUdaxDdzD4kDM_P-26" vertex="1">
          <mxGeometry width="29.500000000000114" height="31" as="geometry">
            <mxRectangle width="29.500000000000114" height="31" as="alternateBounds" />
          </mxGeometry>
        </mxCell>
        <mxCell id="Es2-elUdaxDdzD4kDM_P-28" value="completed_at DATE NN" style="shape=partialRectangle;connectable=0;fillColor=none;top=0;left=0;bottom=0;right=0;align=left;spacingLeft=6;overflow=hidden;whiteSpace=wrap;html=1;" parent="Es2-elUdaxDdzD4kDM_P-26" vertex="1">
          <mxGeometry x="29.500000000000114" width="215.37999999999988" height="31" as="geometry">
            <mxRectangle width="215.37999999999988" height="31" as="alternateBounds" />
          </mxGeometry>
        </mxCell>
        <mxCell id="Es2-elUdaxDdzD4kDM_P-29" value="" style="shape=tableRow;horizontal=0;startSize=0;swimlaneHead=0;swimlaneBody=0;fillColor=none;collapsible=0;dropTarget=0;points=[[0,0.5],[1,0.5]];portConstraint=eastwest;top=0;left=0;right=0;bottom=0;" parent="Es2-elUdaxDdzD4kDM_P-1" vertex="1">
          <mxGeometry y="301" width="244.88" height="30" as="geometry" />
        </mxCell>
        <mxCell id="Es2-elUdaxDdzD4kDM_P-30" value="" style="shape=partialRectangle;connectable=0;fillColor=none;top=0;left=0;bottom=0;right=0;editable=1;overflow=hidden;whiteSpace=wrap;html=1;" parent="Es2-elUdaxDdzD4kDM_P-29" vertex="1">
          <mxGeometry width="29.500000000000114" height="30" as="geometry">
            <mxRectangle width="29.500000000000114" height="30" as="alternateBounds" />
          </mxGeometry>
        </mxCell>
        <mxCell id="Es2-elUdaxDdzD4kDM_P-31" value="created_at DATE NN" style="shape=partialRectangle;connectable=0;fillColor=none;top=0;left=0;bottom=0;right=0;align=left;spacingLeft=6;overflow=hidden;whiteSpace=wrap;html=1;" parent="Es2-elUdaxDdzD4kDM_P-29" vertex="1">
          <mxGeometry x="29.500000000000114" width="215.37999999999988" height="30" as="geometry">
            <mxRectangle width="215.37999999999988" height="30" as="alternateBounds" />
          </mxGeometry>
        </mxCell>
        <mxCell id="Es2-elUdaxDdzD4kDM_P-32" value="" style="shape=tableRow;horizontal=0;startSize=0;swimlaneHead=0;swimlaneBody=0;fillColor=none;collapsible=0;dropTarget=0;points=[[0,0.5],[1,0.5]];portConstraint=eastwest;top=0;left=0;right=0;bottom=0;" parent="Es2-elUdaxDdzD4kDM_P-1" vertex="1">
          <mxGeometry y="331" width="244.88" height="30" as="geometry" />
        </mxCell>
        <mxCell id="Es2-elUdaxDdzD4kDM_P-33" value="" style="shape=partialRectangle;connectable=0;fillColor=none;top=0;left=0;bottom=0;right=0;editable=1;overflow=hidden;whiteSpace=wrap;html=1;" parent="Es2-elUdaxDdzD4kDM_P-32" vertex="1">
          <mxGeometry width="29.500000000000114" height="30" as="geometry">
            <mxRectangle width="29.500000000000114" height="30" as="alternateBounds" />
          </mxGeometry>
        </mxCell>
        <mxCell id="Es2-elUdaxDdzD4kDM_P-34" value="updated_at DATE NN" style="shape=partialRectangle;connectable=0;fillColor=none;top=0;left=0;bottom=0;right=0;align=left;spacingLeft=6;overflow=hidden;whiteSpace=wrap;html=1;" parent="Es2-elUdaxDdzD4kDM_P-32" vertex="1">
          <mxGeometry x="29.500000000000114" width="215.37999999999988" height="30" as="geometry">
            <mxRectangle width="215.37999999999988" height="30" as="alternateBounds" />
          </mxGeometry>
        </mxCell>
        <mxCell id="Es2-elUdaxDdzD4kDM_P-35" value="" style="shape=tableRow;horizontal=0;startSize=0;swimlaneHead=0;swimlaneBody=0;fillColor=none;collapsible=0;dropTarget=0;points=[[0,0.5],[1,0.5]];portConstraint=eastwest;top=0;left=0;right=0;bottom=0;" parent="Es2-elUdaxDdzD4kDM_P-1" vertex="1">
          <mxGeometry y="361" width="244.88" height="30" as="geometry" />
        </mxCell>
        <mxCell id="Es2-elUdaxDdzD4kDM_P-36" value="FK" style="shape=partialRectangle;connectable=0;fillColor=none;top=0;left=0;bottom=0;right=0;editable=1;overflow=hidden;whiteSpace=wrap;html=1;" parent="Es2-elUdaxDdzD4kDM_P-35" vertex="1">
          <mxGeometry width="29.500000000000114" height="30" as="geometry">
            <mxRectangle width="29.500000000000114" height="30" as="alternateBounds" />
          </mxGeometry>
        </mxCell>
        <mxCell id="Es2-elUdaxDdzD4kDM_P-37" value="roomId" style="shape=partialRectangle;connectable=0;fillColor=none;top=0;left=0;bottom=0;right=0;align=left;spacingLeft=6;overflow=hidden;whiteSpace=wrap;html=1;" parent="Es2-elUdaxDdzD4kDM_P-35" vertex="1">
          <mxGeometry x="29.500000000000114" width="215.37999999999988" height="30" as="geometry">
            <mxRectangle width="215.37999999999988" height="30" as="alternateBounds" />
          </mxGeometry>
        </mxCell>
        <mxCell id="Es2-elUdaxDdzD4kDM_P-38" value="DraftItem" style="shape=table;startSize=30;container=1;collapsible=1;childLayout=tableLayout;fixedRows=1;rowLines=0;fontStyle=1;align=center;resizeLast=1;html=1;" parent="1" vertex="1">
          <mxGeometry x="792" y="321" width="244.88395467836244" height="180.38873672485357" as="geometry" />
        </mxCell>
        <mxCell id="Es2-elUdaxDdzD4kDM_P-39" value="" style="shape=tableRow;horizontal=0;startSize=0;swimlaneHead=0;swimlaneBody=0;fillColor=none;collapsible=0;dropTarget=0;points=[[0,0.5],[1,0.5]];portConstraint=eastwest;top=0;left=0;right=0;bottom=1;" parent="Es2-elUdaxDdzD4kDM_P-38" vertex="1">
          <mxGeometry y="30" width="244.88395467836244" height="30" as="geometry" />
        </mxCell>
        <mxCell id="Es2-elUdaxDdzD4kDM_P-40" value="PK" style="shape=partialRectangle;connectable=0;fillColor=none;top=0;left=0;bottom=0;right=0;fontStyle=1;overflow=hidden;whiteSpace=wrap;html=1;" parent="Es2-elUdaxDdzD4kDM_P-39" vertex="1">
          <mxGeometry width="30" height="30" as="geometry">
            <mxRectangle width="30" height="30" as="alternateBounds" />
          </mxGeometry>
        </mxCell>
        <mxCell id="Es2-elUdaxDdzD4kDM_P-41" value="&lt;span style=&quot;font-weight: normal;&quot;&gt;id INT&lt;/span&gt;" style="shape=partialRectangle;connectable=0;fillColor=none;top=0;left=0;bottom=0;right=0;align=left;spacingLeft=6;fontStyle=5;overflow=hidden;whiteSpace=wrap;html=1;" parent="Es2-elUdaxDdzD4kDM_P-39" vertex="1">
          <mxGeometry x="30" width="214.88395467836244" height="30" as="geometry">
            <mxRectangle width="214.88395467836244" height="30" as="alternateBounds" />
          </mxGeometry>
        </mxCell>
        <mxCell id="Es2-elUdaxDdzD4kDM_P-42" value="" style="shape=tableRow;horizontal=0;startSize=0;swimlaneHead=0;swimlaneBody=0;fillColor=none;collapsible=0;dropTarget=0;points=[[0,0.5],[1,0.5]];portConstraint=eastwest;top=0;left=0;right=0;bottom=0;" parent="Es2-elUdaxDdzD4kDM_P-38" vertex="1">
          <mxGeometry y="60" width="244.88395467836244" height="30" as="geometry" />
        </mxCell>
        <mxCell id="Es2-elUdaxDdzD4kDM_P-43" value="" style="shape=partialRectangle;connectable=0;fillColor=none;top=0;left=0;bottom=0;right=0;editable=1;overflow=hidden;whiteSpace=wrap;html=1;" parent="Es2-elUdaxDdzD4kDM_P-42" vertex="1">
          <mxGeometry width="30" height="30" as="geometry">
            <mxRectangle width="30" height="30" as="alternateBounds" />
          </mxGeometry>
        </mxCell>
        <mxCell id="Es2-elUdaxDdzD4kDM_P-44" value="name VARCHAR NN" style="shape=partialRectangle;connectable=0;fillColor=none;top=0;left=0;bottom=0;right=0;align=left;spacingLeft=6;overflow=hidden;whiteSpace=wrap;html=1;" parent="Es2-elUdaxDdzD4kDM_P-42" vertex="1">
          <mxGeometry x="30" width="214.88395467836244" height="30" as="geometry">
            <mxRectangle width="214.88395467836244" height="30" as="alternateBounds" />
          </mxGeometry>
        </mxCell>
        <mxCell id="Es2-elUdaxDdzD4kDM_P-45" value="" style="shape=tableRow;horizontal=0;startSize=0;swimlaneHead=0;swimlaneBody=0;fillColor=none;collapsible=0;dropTarget=0;points=[[0,0.5],[1,0.5]];portConstraint=eastwest;top=0;left=0;right=0;bottom=0;" parent="Es2-elUdaxDdzD4kDM_P-38" vertex="1">
          <mxGeometry y="90" width="244.88395467836244" height="30" as="geometry" />
        </mxCell>
        <mxCell id="Es2-elUdaxDdzD4kDM_P-46" value="" style="shape=partialRectangle;connectable=0;fillColor=none;top=0;left=0;bottom=0;right=0;editable=1;overflow=hidden;whiteSpace=wrap;html=1;" parent="Es2-elUdaxDdzD4kDM_P-45" vertex="1">
          <mxGeometry width="30" height="30" as="geometry">
            <mxRectangle width="30" height="30" as="alternateBounds" />
          </mxGeometry>
        </mxCell>
        <mxCell id="Es2-elUdaxDdzD4kDM_P-47" value="quantity INT NN" style="shape=partialRectangle;connectable=0;fillColor=none;top=0;left=0;bottom=0;right=0;align=left;spacingLeft=6;overflow=hidden;whiteSpace=wrap;html=1;" parent="Es2-elUdaxDdzD4kDM_P-45" vertex="1">
          <mxGeometry x="30" width="214.88395467836244" height="30" as="geometry">
            <mxRectangle width="214.88395467836244" height="30" as="alternateBounds" />
          </mxGeometry>
        </mxCell>
        <mxCell id="Es2-elUdaxDdzD4kDM_P-48" value="" style="shape=tableRow;horizontal=0;startSize=0;swimlaneHead=0;swimlaneBody=0;fillColor=none;collapsible=0;dropTarget=0;points=[[0,0.5],[1,0.5]];portConstraint=eastwest;top=0;left=0;right=0;bottom=0;" parent="Es2-elUdaxDdzD4kDM_P-38" vertex="1">
          <mxGeometry y="120" width="244.88395467836244" height="30" as="geometry" />
        </mxCell>
        <mxCell id="Es2-elUdaxDdzD4kDM_P-49" value="" style="shape=partialRectangle;connectable=0;fillColor=none;top=0;left=0;bottom=0;right=0;editable=1;overflow=hidden;whiteSpace=wrap;html=1;" parent="Es2-elUdaxDdzD4kDM_P-48" vertex="1">
          <mxGeometry width="30" height="30" as="geometry">
            <mxRectangle width="30" height="30" as="alternateBounds" />
          </mxGeometry>
        </mxCell>
        <mxCell id="Es2-elUdaxDdzD4kDM_P-50" value="price INT NN" style="shape=partialRectangle;connectable=0;fillColor=none;top=0;left=0;bottom=0;right=0;align=left;spacingLeft=6;overflow=hidden;whiteSpace=wrap;html=1;" parent="Es2-elUdaxDdzD4kDM_P-48" vertex="1">
          <mxGeometry x="30" width="214.88395467836244" height="30" as="geometry">
            <mxRectangle width="214.88395467836244" height="30" as="alternateBounds" />
          </mxGeometry>
        </mxCell>
        <mxCell id="Es2-elUdaxDdzD4kDM_P-51" value="" style="shape=tableRow;horizontal=0;startSize=0;swimlaneHead=0;swimlaneBody=0;fillColor=none;collapsible=0;dropTarget=0;points=[[0,0.5],[1,0.5]];portConstraint=eastwest;top=0;left=0;right=0;bottom=0;" parent="Es2-elUdaxDdzD4kDM_P-38" vertex="1">
          <mxGeometry y="150" width="244.88395467836244" height="30" as="geometry" />
        </mxCell>
        <mxCell id="Es2-elUdaxDdzD4kDM_P-52" value="FK" style="shape=partialRectangle;connectable=0;fillColor=none;top=0;left=0;bottom=0;right=0;editable=1;overflow=hidden;whiteSpace=wrap;html=1;" parent="Es2-elUdaxDdzD4kDM_P-51" vertex="1">
          <mxGeometry width="30" height="30" as="geometry">
            <mxRectangle width="30" height="30" as="alternateBounds" />
          </mxGeometry>
        </mxCell>
        <mxCell id="Es2-elUdaxDdzD4kDM_P-53" value="draftRequestId" style="shape=partialRectangle;connectable=0;fillColor=none;top=0;left=0;bottom=0;right=0;align=left;spacingLeft=6;overflow=hidden;whiteSpace=wrap;html=1;" parent="Es2-elUdaxDdzD4kDM_P-51" vertex="1">
          <mxGeometry x="30" width="214.88395467836244" height="30" as="geometry">
            <mxRectangle width="214.88395467836244" height="30" as="alternateBounds" />
          </mxGeometry>
        </mxCell>
        <mxCell id="Es2-elUdaxDdzD4kDM_P-54" value="" style="edgeStyle=entityRelationEdgeStyle;fontSize=12;html=1;endArrow=ERoneToMany;startArrow=ERmandOne;rounded=0;exitX=1;exitY=0.5;exitDx=0;exitDy=0;entryX=0;entryY=0.5;entryDx=0;entryDy=0;" parent="1" source="Es2-elUdaxDdzD4kDM_P-2" target="Es2-elUdaxDdzD4kDM_P-51" edge="1">
          <mxGeometry width="100" height="100" relative="1" as="geometry">
            <mxPoint x="664" y="560" as="sourcePoint" />
            <mxPoint x="721" y="704" as="targetPoint" />
          </mxGeometry>
        </mxCell>
        <mxCell id="E5PyeHpLaqDHUOCWD0WV-6" value="" style="edgeStyle=entityRelationEdgeStyle;fontSize=12;html=1;endArrow=ERzeroToMany;startArrow=ERmandOne;rounded=0;entryX=0;entryY=0.5;entryDx=0;entryDy=0;exitX=1;exitY=0.5;exitDx=0;exitDy=0;" edge="1" parent="1" source="X5-aWvdIGJbd734DBQmP-2" target="Es2-elUdaxDdzD4kDM_P-35">
          <mxGeometry width="100" height="100" relative="1" as="geometry">
            <mxPoint x="376" y="245" as="sourcePoint" />
            <mxPoint x="233" y="487" as="targetPoint" />
          </mxGeometry>
        </mxCell>
      </root>
    </mxGraphModel>
  </diagram>
</mxfile>
